<?xml version="1.0" encoding="UTF-8" standalone="no"?>
<!-- Created with Inkscape (http://www.inkscape.org/) -->

<svg
   xmlns:dc="http://purl.org/dc/elements/1.1/"
   xmlns:cc="http://creativecommons.org/ns#"
   xmlns:rdf="http://www.w3.org/1999/02/22-rdf-syntax-ns#"
   xmlns:svg="http://www.w3.org/2000/svg"
   xmlns="http://www.w3.org/2000/svg"
   xmlns:sodipodi="http://sodipodi.sourceforge.net/DTD/sodipodi-0.dtd"
   xmlns:inkscape="http://www.inkscape.org/namespaces/inkscape"
   width="58.381821mm"
   height="39.391247mm"
   viewBox="0 0 58.381821 39.391247"
   version="1.1"
   id="svg8"
   sodipodi:docname="contact.svg"
   inkscape:version="0.92.3 (2405546, 2018-03-11)">
  <defs
     id="defs2">
    <marker
       inkscape:stockid="Arrow1Lstart"
       orient="auto"
       refY="0"
       refX="0"
       id="marker4794"
       style="overflow:visible"
       inkscape:isstock="true">
      <path
         id="path4792"
         d="M 0,0 5,-5 -12.5,0 5,5 Z"
         style="fill-rule:evenodd;stroke:#001a4d;stroke-width:1.00000003pt"
         transform="matrix(0.8,0,0,0.8,10,0)"
         inkscape:connector-curvature="0" />
    </marker>
    <marker
       inkscape:stockid="Arrow1Lstart"
       orient="auto"
       refY="0"
       refX="0"
       id="Arrow1Lstart"
       style="overflow:visible"
       inkscape:isstock="true">
      <path
         id="path4522"
         d="M 0,0 5,-5 -12.5,0 5,5 Z"
         style="fill-rule:evenodd;stroke:#001a4d;stroke-width:1.00000003pt"
         transform="matrix(0.8,0,0,0.8,10,0)"
         inkscape:connector-curvature="0" />
    </marker>
  </defs>
  <sodipodi:namedview
     id="base"
     pagecolor="#ffffff"
     bordercolor="#666666"
     borderopacity="1.0"
     inkscape:pageopacity="0.0"
     inkscape:pageshadow="2"
     inkscape:zoom="2.56"
     inkscape:cx="49.932281"
     inkscape:cy="76.528692"
     inkscape:document-units="mm"
     inkscape:current-layer="layer1"
     showgrid="false"
     showguides="true"
     inkscape:guide-bbox="true"
     inkscape:measure-start="268.196,532.855"
     inkscape:measure-end="0,0"
     inkscape:snap-intersection-paths="true"
     inkscape:object-paths="true"
     inkscape:snap-smooth-nodes="false"
     inkscape:snap-midpoints="false"
     inkscape:snap-object-midpoints="true"
     inkscape:snap-center="true"
     inkscape:snap-text-baseline="true"
     inkscape:snap-others="true"
     inkscape:snap-nodes="false"
     inkscape:window-width="1600"
     inkscape:window-height="845"
     inkscape:window-x="0"
     inkscape:window-y="31"
     inkscape:window-maximized="1">
    <sodipodi:guide
       position="-92.615827,46.267344"
       orientation="1,0"
       id="guide4812"
       inkscape:locked="false" />
  </sodipodi:namedview>
  <metadata
     id="metadata5">
    <rdf:RDF>
      <cc:Work
         rdf:about="">
        <dc:format>image/svg+xml</dc:format>
        <dc:type
           rdf:resource="http://purl.org/dc/dcmitype/StillImage" />
        <dc:title></dc:title>
      </cc:Work>
    </rdf:RDF>
  </metadata>
  <g
     inkscape:label="Calque 1"
     inkscape:groupmode="layer"
     id="layer1"
     transform="translate(-71.071186,-147.77193)">
    <g
       id="g5118">
      <path
         inkscape:connector-curvature="0"
         d="M 284.36328,574.25586 V 691.64062 H 473.52344 V 574.25586 Z"
         style="fill:#001a4d;fill-opacity:1;stroke:#001a4d;stroke-width:31.49553871;stroke-linecap:round;stroke-linejoin:round;stroke-miterlimit:4;stroke-dasharray:none;stroke-opacity:1;paint-order:stroke fill markers"
         transform="scale(0.26458333)"
         id="rect3715" />
      <path
         inkscape:connector-curvature="0"
         d="m 269.27539,579.14062 c 10e-4,0.45961 0.0101,0.91937 0.006,1.37891 0.007,0.0615 0.0147,0.12348 0.0293,0.18359 0.0102,0.0427 0.0404,0.0783 0.0605,0.11719 0.0302,0.11112 0.0708,0.21865 0.0918,0.33203 0.0602,0.32504 0.0381,0.44731 0.0293,0.7793 0.0579,0.31975 0.0951,0.64026 0.10937,0.96484 0.005,0.12208 -0.015,0.247 0.006,0.36719 0.009,0.0495 0.0613,0.082 0.0801,0.12891 0.0486,0.12094 0.0811,0.2475 0.12109,0.37109 0.0602,0.35414 0.15408,0.70273 0.17774,1.0625 0.0231,0.34999 -0.007,0.70121 -0.0234,1.05078 -0.0189,0.44863 0.002,0.89696 0.002,1.34571 -0.003,0.54655 -0.002,1.09406 -0.002,1.64062 3e-4,0.63681 10e-6,1.27331 0,1.91016 5e-5,0.63201 10e-6,1.26447 0,1.89648 v 1.98828 0.41016 l 109.48633,57.9668 0.55078,-1.03907 0.26172,0.4961 109.1543,-57.79492 v -0.36329 -1.11132 -0.625 c -0.0769,-0.0818 -0.11027,-0.21301 -0.11914,-0.36719 v -0.002 c -0.22161,-0.16619 1.4e-4,-0.55595 0,-0.83399 -3.6e-4,-0.52227 -1.4e-4,-1.20587 0,-1.87109 -0.007,-1.56004 -0.007,-3.11969 0,-4.67969 0,-0.75529 4e-5,-1.51033 0,-2.26563 -0.0725,-0.23177 -0.16274,-0.47113 0,-0.5996 -1e-5,-0.0326 0,-0.0651 0,-0.0977 0.01,8.1e-4 0.0215,-0.003 0.0312,-0.002 0.004,-0.20898 5.3e-4,-0.41799 0.006,-0.62696 0.009,-0.69452 0.0216,-1.38841 0.0176,-2.08203 l -110.00976,58.2461 z"
         style="fill:#fffcff;fill-opacity:1;stroke:#ffffff;stroke-width:6.07748032;stroke-linecap:butt;stroke-linejoin:round;stroke-miterlimit:0.1;stroke-dasharray:none;stroke-opacity:1;paint-order:stroke fill markers"
         transform="scale(0.26458333)"
         id="rect4814" />
    </g>
  </g>
</svg>
