<?xml version="1.0" encoding="utf-8"?>
<!-- Generator: Adobe Illustrator 16.0.0, SVG Export Plug-In . SVG Version: 6.00 Build 0)  -->
<!DOCTYPE svg PUBLIC "-//W3C//DTD SVG 1.1//EN" "http://www.w3.org/Graphics/SVG/1.1/DTD/svg11.dtd">
<svg version="1.1" id="Calque_1" xmlns="http://www.w3.org/2000/svg" xmlns:xlink="http://www.w3.org/1999/xlink" x="0px" y="0px"
	 width="64px" height="64px" viewBox="0 0 64 64" enable-background="new 0 0 64 64" xml:space="preserve">
<g>
	<path fill-rule="evenodd" clip-rule="evenodd" fill="#FCBF85" d="M28.594,56.03h6.692v-0.625c1.573-0.018,2.737,0.014,2.712-0.116
		c-0.026-0.13,1.663-3.889,1.663-3.889l-2.657-1.496l-1.718-23.303h-6.692l-1.461,23.138c-1.738,1.688-2.563,1.464-2.563,1.464
		s1.633,4.203,2.06,4.203c0.106,0,0.875,0.006,1.964,0.01V56.03z"/>
	<path fill-rule="evenodd" clip-rule="evenodd" fill="#FFFFFF" d="M38.57,50.762l-1.443,0.478l-2.14,2.109l-2.773-0.338h-0.313
		l-2.652,0.303l-2.455-2.609l-2.062,0.058c2.154,1.903,1.61,5.988,3.863,6.175c1.251,0.104,5.06,1.397,6.986,0.118
		C37.465,55.802,37.467,51.991,38.57,50.762"/>
	<polygon fill-rule="evenodd" clip-rule="evenodd" fill="#383C3E" points="33.207,57.179 34.629,55.428 33.188,52.934 
		31.017,52.934 29.549,55.673 30.571,57.027 29.362,60.254 33.934,60.329 	"/>
	<path fill-rule="evenodd" clip-rule="evenodd" fill="#FDCA97" d="M46.41,16.267H17.83c-0.039,0.172-0.03,0.732,0.007,1.515
		c0.186,3.941,1.154,14.081,1.154,15.013c0,11.229,5.893,13.602,12.938,13.601c10.165,0.189,13.32-4.122,13.32-13.601
		c0-0.932,0.969-11.071,1.154-15.013C46.441,16.999,46.449,16.438,46.41,16.267"/>
	<path fill-rule="evenodd" clip-rule="evenodd" fill="#FDCA97" d="M15.744,29.514c0,1.385,1.564,2.611,3.297,2.611l-0.158-5.12
		C17.148,27.005,15.744,28.128,15.744,29.514"/>
	<path fill-rule="evenodd" clip-rule="evenodd" fill="#FDCA97" d="M48.489,29.514c0,1.385-1.562,2.611-3.297,2.611l0.159-5.12
		C47.086,27.005,48.489,28.128,48.489,29.514"/>
	<polygon fill-rule="evenodd" clip-rule="evenodd" fill="#E5E2E2" points="33.188,52.934 36.719,59.038 40.527,51.082 
		38.849,48.439 	"/>
	<polygon fill-rule="evenodd" clip-rule="evenodd" fill="#E5E2E2" points="31.017,52.934 27.485,59.038 23.677,51.082 
		25.266,48.204 	"/>
	<path fill-rule="evenodd" clip-rule="evenodd" fill="#734936" d="M42.346,10.765c0,0-4.184-5.633-10.174-4.749
		c-5.553-0.819-19.674,6.796-14.957,17.145c0.947,0.102,1.792-0.011,2.547-0.254c3.52,1.711,17.709-1.388,19.765-5.303
		c0,0,4.677,4.998,5.818,9.588C46.1,27.435,53.405,12.114,42.346,10.765"/>
	<path fill-rule="evenodd" clip-rule="evenodd" fill="#734936" d="M39.527,17.604c0,0,4.677,4.998,5.818,9.588
		c0.754,0.242,8.06-15.077-3-16.427C41.916,10.703,39.527,17.604,39.527,17.604"/>
	<path fill-rule="evenodd" clip-rule="evenodd" fill="#734936" d="M24.391,17.878c0,0-4.676,4.999-5.817,9.588
		c-0.754,0.243-8.06-15.077,2.999-16.426C22.002,10.979,24.391,17.878,24.391,17.878"/>
	<path fill-rule="evenodd" clip-rule="evenodd" fill="#734936" d="M42.543,13.874C45.51,6.712,30.116,3.651,30.117,3.67
		c0.031,0.333,0.687,1.301,0.746,1.433c-0.02,0-3.527-0.893-6.918-0.024c0,0,2.814,1.402,3.035,2.065
		c-4.781-2.047-8.682-0.691-8.654-0.447c0,0,0.613,0.896,1.624,1.545c1.012,0.649-2.972,0.595-4.279,2.931
		c-0.022,0.003,1.439-0.795,4.092,3.251c3.703,5.646,14.613,2.276,19.884,0.632C40.615,14.752,42.248,14.584,42.543,13.874"/>
	<path fill="#111623" d="M27.236,30.1c0,1.277-0.569,1.829-1.272,1.829s-1.272-0.552-1.272-1.829c0-1.279,0.569-1.91,1.272-1.91
		S27.236,28.82,27.236,30.1"/>
	<path fill="#111623" d="M39.166,30.1c0,1.277-0.57,1.829-1.272,1.829c-0.704,0-1.272-0.552-1.272-1.829
		c0-1.279,0.568-1.91,1.272-1.91C38.596,28.189,39.166,28.82,39.166,30.1"/>
	<path fill="#734936" d="M29.407,25.493c0,0-4.719-2.807-6.888,1.021"/>
	<path fill="#734936" d="M35.811,25.493c0,0,3.759-2.807,5.484,1.021"/>
	<path fill="#FFFFFF" d="M28.637,40.514c0.965,2.466,6.043,3.383,7.734,0.803L28.637,40.514"/>
	<g>
		<path fill-rule="evenodd" clip-rule="evenodd" fill="#515457" d="M26.004,33.435c-5.158,0-4.181-0.482-4.181-3.376
			c0-3.784,0.793-3.182,4.16-3.182c4.219,0,4.198-0.393,4.198,3.182C30.182,33.064,30.555,33.45,26.004,33.435 M32.55,28.939h-1.117
			c0.033-2.997-0.263-3.378-5.429-3.378c-4.988,0-5.047,0.559-5.377,2.662l-2.625-1.608l-0.136,0.908l2.553,2.208l-0.042,0.327
			c0,4.168,0.399,4.498,5.626,4.498c5.301,0,5.667-0.706,5.625-4.496h0.722"/>
		<path fill-rule="evenodd" clip-rule="evenodd" fill="#515457" d="M37.99,33.435c-4.551,0.016-4.178-0.37-4.178-3.376
			c0-3.574-0.021-3.182,4.197-3.182c3.367,0,4.16-0.603,4.16,3.182C42.17,32.952,43.148,33.435,37.99,33.435 M32.365,30.061
			c-0.042,3.79,0.324,4.496,5.625,4.496c5.227,0,5.58-0.199,5.58-4.368l2.313-2.7l-0.159-1.069l-2.21,2.3l-0.077-0.898
			c-0.33-2.104-0.459-2.259-5.447-2.259c-5.167,0-5.634,0.459-5.602,3.455"/>
	</g>
	<path fill="#FBB88B" d="M33.705,34.515l-1.185-4.083c-0.121-0.417-0.344-0.673-0.585-0.673c-0.242,0-0.466,0.256-0.586,0.673
		l-1.185,4.083c-0.121,0.416-0.121,0.931,0,1.347c0.121,0.416,0.548,0.512,0.789,0.512h0.982h0.98c0.243,0,0.669-0.096,0.79-0.512
		C33.825,35.445,33.825,34.931,33.705,34.515"/>
	<path fill="#734936" d="M18.956,32.125l-0.051,3.824c0.137,1.012,0.263,2.143,0.715,3.405c0.496,1.386,2.47,5.271,6.343,6.38
		c8.197,2.35,16.529,0.555,18.65-5.811c0.313-0.932,0.858-5.114,0.579-7.799c0,0-1.567,7.252-3.178,6.981
		c-1.614-0.27-2.309-2.282-10.019-1.763c-2.434-0.184-4.907-0.578-7.605,2.208c-2.11,2.183-4.817-1.905-5.116-7.427H18.956z
		 M26.552,39.041c4.009,0.736,6.635,0.975,6.635,0.975c2.623,0,5.365-0.282,5.365-0.282c0.447,0.323,3.994,3.935-0.307,4.911
		c-2.879,0.654-4.197-0.884-4.197-0.884l-3.032-0.033c0,0-0.769,1.525-3.134,1.115C22.4,43.893,26.552,39.041,26.552,39.041"/>
</g>
</svg>
